<?xml version="1.0" standalone="no"?>
<!DOCTYPE svg PUBLIC "-//W3C//DTD SVG 20010904//EN"
 "http://www.w3.org/TR/2001/REC-SVG-20010904/DTD/svg10.dtd">
<svg version="1.0" xmlns="http://www.w3.org/2000/svg"
 width="119.000000pt" height="119.000000pt" viewBox="0 0 119.000000 119.000000"
 preserveAspectRatio="xMidYMid meet">

<g transform="translate(0.000000,119.000000) scale(0.100000,-0.100000)"
fill="#000000" stroke="none">
<path d="M493 1180 c-121 -22 -245 -90 -334 -182 -90 -94 -159 -269 -159 -403
0 -122 53 -271 129 -365 123 -150 276 -224 466 -224 173 0 311 60 430 186 134
142 190 334 150 521 -56 267 -277 457 -549 472 -44 2 -104 0 -133 -5z m67
-210 l0 -140 -101 0 -101 0 6 25 c11 45 53 129 85 173 28 38 83 82 104 82 4 0
7 -63 7 -140z m117 120 c54 -32 127 -149 149 -235 l6 -25 -101 0 -101 0 0 140
c0 77 3 140 8 140 4 0 21 -9 39 -20z m-316 -66 c-17 -27 -40 -82 -53 -121
l-23 -73 -77 0 c-43 0 -78 3 -78 6 0 12 59 91 96 128 40 40 154 119 161 112 2
-2 -9 -26 -26 -52z m524 6 c22 -16 57 -45 79 -66 36 -37 96 -116 96 -128 0 -3
-35 -6 -77 -6 l-78 0 -23 73 c-13 39 -36 93 -52 119 -17 27 -30 50 -30 53 0 8
36 -12 85 -45z m-620 -435 l0 -165 -83 0 c-81 0 -83 1 -94 28 -15 35 -15 239
0 275 11 26 13 27 94 27 l83 0 0 -165z m295 0 l0 -165 -109 0 -108 0 -7 38
c-3 20 -6 78 -6 127 0 50 3 107 6 128 l7 37 108 0 109 0 0 -165z m294 128 c3
-21 6 -78 6 -128 0 -49 -3 -107 -6 -127 l-7 -38 -108 0 -109 0 0 165 0 165
109 0 108 0 7 -37z m248 10 c6 -16 12 -77 12 -138 0 -60 -6 -122 -12 -137 -11
-27 -13 -28 -94 -28 l-83 0 0 165 0 165 83 0 c81 0 83 -1 94 -27z m-794 -446
c13 -39 36 -94 53 -121 17 -26 28 -50 26 -52 -2 -2 -31 13 -64 35 -70 45 -141
116 -172 172 l-22 39 78 0 78 0 23 -73z m252 -67 c0 -77 -2 -140 -5 -140 -20
0 -69 36 -100 74 -34 41 -94 165 -95 194 0 9 27 12 100 12 l100 0 0 -140z
m266 115 c-11 -45 -53 -129 -85 -173 -28 -38 -83 -82 -103 -82 -5 0 -8 63 -8
140 l0 140 101 0 101 0 -6 -25z m213 -14 c-31 -56 -102 -127 -172 -172 -33
-22 -62 -37 -64 -35 -2 2 9 26 26 52 17 27 40 82 53 121 l23 73 78 0 78 0 -22
-39z"/>
</g>
</svg>
